<svg width="100" height="100" viewBox="0 0 100 100" fill="none" xmlns="http://www.w3.org/2000/svg">
<path d="M65.8999 31.2C73.6999 37.6 85.0999 39.7 88.3999 45.1C91.5999 50.6 86.5999 59.4 81.2999 67.8C76.0999 76.2 70.6999 84.1 63.6999 85.9C56.6999 87.7 48.0999 83.2 38.7999 80.1C29.4999 77 19.4999 75.2 15.1999 69.3C10.7999 63.4 12.0999 53.5 15.0999 45.1C18.0999 36.8 22.8999 30.1 28.9999 23.4C35.0999 16.8 42.5999 10.1 48.2999 12.2C54.0999 14.2 58.0999 24.8 65.8999 31.2Z" fill="url(#paint0_linear_17_3)"/>
<defs>
<linearGradient id="paint0_linear_17_3" x1="12.3569" y1="86.3118" x2="86.8192" y2="9.30665" gradientUnits="userSpaceOnUse">
<stop stop-color="#6E1423" stop-opacity="0.24"/>
<stop offset="1" stop-color="#6E1423" stop-opacity="0.17"/>
</linearGradient>
</defs>
</svg>
